<svg width="14" height="16" viewBox="0 0 14 16" fill="none" xmlns="http://www.w3.org/2000/svg">
<path d="M1 14.3333V13.5C1 11.9529 1.61458 10.4691 2.70854 9.37525C3.8025 8.28125 5.28623 7.66667 6.83333 7.66667M6.83333 7.66667C8.38038 7.66667 9.86418 8.28125 10.9581 9.37525C12.0521 10.4691 12.6667 11.9529 12.6667 13.5V14.3333M6.83333 7.66667C7.71738 7.66667 8.56528 7.31548 9.19038 6.69036C9.81548 6.06524 10.1667 5.21739 10.1667 4.33334C10.1667 3.44928 9.81548 2.60143 9.19038 1.97631C8.56528 1.35119 7.71738 1 6.83333 1C5.94927 1 5.10143 1.35119 4.47631 1.97631C3.85118 2.60143 3.5 3.44928 3.5 4.33334C3.5 5.21739 3.85118 6.06524 4.47631 6.69036C5.10143 7.31548 5.94927 7.66667 6.83333 7.66667Z" stroke="#2f120e" stroke-width="1.25" stroke-linecap="round" stroke-linejoin="round"/>
</svg>
