<svg width="17" height="17" viewBox="0 0 17 17" fill="none" xmlns="http://www.w3.org/2000/svg">
<path d="M9.89191 2.66667C9.89191 2.22464 9.71631 1.80072 9.40371 1.48816C9.09111 1.17559 8.66721 1 8.22521 1C7.78317 1 7.35925 1.17559 7.04669 1.48816C6.73413 1.80072 6.55853 2.22464 6.55853 2.66667M14.2752 6.58L15.4294 14.08C15.4659 14.3174 15.4506 14.5598 15.3847 14.7908C15.3188 15.0217 15.2037 15.2357 15.0474 15.418C14.8911 15.6004 14.6973 15.7468 14.4791 15.8472C14.261 15.9477 14.0237 15.9998 13.7835 16H2.66687C2.42656 16 2.18909 15.9481 1.97074 15.8477C1.75238 15.7474 1.55831 15.601 1.40182 15.4187C1.24533 15.2363 1.13013 15.0222 1.06412 14.7912C0.998108 14.5601 0.982838 14.3175 1.01937 14.08L2.17353 6.58C2.23408 6.18633 2.4336 5.82735 2.73597 5.56809C3.03834 5.30882 3.42356 5.16642 3.82187 5.16667H12.6285C13.0267 5.16662 13.4117 5.30911 13.7139 5.56836C14.0161 5.8276 14.2147 6.18647 14.2752 6.58Z" stroke="#2f120e" stroke-width="1.25" stroke-linecap="round" stroke-linejoin="round"/>
</svg>
