<svg width="40" height="40" viewBox="0 0 29.999 30.001" xmlns="http://www.w3.org/2000/svg"><path d="M0 5.084v19.833h30V5.084Zm15.02 10.745L2.377 6.332h25.287Zm-2.6-.373-11.153 7.68V7.078l11.153 8.377Zm1.066.801 1.487 1.117.034.045.013-.01.014.01.034-.045 1.503-1.13 10.796 7.434H2.709l10.778-7.42Zm4.15-.813 11.091-8.33V23.08Z" style="stroke-width:.0532428"/><path d="M15.527 11.749c-.986 0-1.745-.6-1.759-1.52-.013-.919.813-1.545 1.746-1.545s1.76.52 1.76.52V8.097s-.49-.294-1.68-.426c-1.257-.14-3.158.733-3.105 2.559.053 1.825 1.613 2.532 2.838 2.545 1.226.013 2.013-.493 2.013-.493V11.19s-.827.56-1.813.56z" style="stroke-width:.0532428"/></svg>