<svg width="40" height="40" viewBox="0 0 30 30.001" xmlns="http://www.w3.org/2000/svg"><path d="m16.942 15.053.87 1.432a5.446 5.446 0 1 0-8.242-4.679h1.677a3.77 3.77 0 1 1 5.695 3.247z" style="stroke-width:.0657535"/><path d="M15.017 3.107a8.704 8.704 0 0 0-8.704 8.7h1.669a7.035 7.035 0 0 1 14.07.004 6.995 6.995 0 0 1-1.44 4.26l-.015.003s-1.258 1.554-1.568 1.85c-.311.297-1.64 1.98-3.25 4.777-1.612 2.798-2.36 3.194-4.141 1.88l-1.159 1.13s.75 1.088 2.756 1.23c2.007.14 3.18-2.008 3.278-2.248.1-.24 2.445-4.197 2.827-4.663.3-.367 1.61-1.745 2.408-2.734a.284.284 0 0 0 .022.003 8.704 8.704 0 0 0-6.754-14.193z" style="stroke-width:.0657535"/><path d="M7.357 18.828.024 26.21 0 29.976h3.915l8.3-8.274s-2.255-.372-4.857-2.874zM26.11.025 21.975 4.21s2.304 1.908 2.972 4.806L30 3.963V.025z" style="stroke-width:.0657535"/></svg>