<svg width="40" height="40" viewBox="0 0 30 30.001" xmlns="http://www.w3.org/2000/svg"><path d="M14.736 8.318C14.32 8.152 13.448 7.3 13.448 7.3s-.458-.437-.935-.416c-.478.02-1.767-.084-1.767-.084s-.581.063-.81.187c-.23.125-1.767.624-1.891.707-.125.083-.457.062.062-.27.52-.333 1.35-1.06 1.475-1.247.125-.187 1.434-.582 1.787-.728 0 0 .208-.187.52-.187.312 0 1.58-.124 1.808-.976.083-.832-1.164-.52-1.164-.52l-.582.083s-.977.084-1.393.25c-.415.166-1.496.644-2.223 1.143-.727.498-1.704 1.33-1.704 1.33s-.416.207-.104-.25c.312-.457 1.33-1.808 1.455-1.912.124-.104 1.122-1.06.872-1.62-.25-.562-.395-.686-.727-.312-.332.374-.623.623-.852.977-.229.353-1.018 1.226-1.205 1.392-.187.167-.457.375-.686.852-.229.478-.81 1.538-1.018 1.684-.208.145-.375.27-.666.79-.29.52-.831 2.265-.914 2.493-.083.229-.727 2.535-1.35 3.075-.624.54-1.35.811-1.35.811s-.603 4.468 1.392 6.67c0 0 1.558-1.142 2.826-1.267 1.267-.125 2.16.125 2.16.125s.458.207.936 0c.477-.208 1.06-.25 1.641-.54.582-.292 1.247-.417 1.538-.562.291-.145 1.642-.498 1.85-.52.208-.021.415-.041.52-.187.104-.145.54-.748.623-1.101.083-.353.686-1.83.686-1.83s.25-.56-.146-.685c0 0 .125-.79.166-1.393.042-.602.146-1.08-.27-1.37-.416-.292-2.327-1.788-2.327-1.788s-.333-.187-.499-.166c-.166.02-2.41.125-2.888.52-.478.395-.27-.291-.042-.437.23-.145 1.933-1.475 2.14-1.579.208-.104 1.497 0 1.892-.104.395-.104.665.707 1.787 1.06.852.27 1.101-.582 1.101-.582s-.02-.333-.436-.499zm-6.65 4.759c.125-.23 1.06-.603 1.06-.603 1.911-.54 1.58-.997 1.85-.582.27.416 1.6.935 1.6.935 0 .312.498 1.455.706 1.662.208.208-.083.333-.083.333-.478.166-1.06 1.226-1.185 1.496-.124.27-.395.166-.395.166-2.057-.229-2.41.54-2.555.083-.146-.457-.852-.997-1.102-1.247-.25-.25-.478-.644-.395-.81.083-.167.374-1.206.499-1.434zM15.264 21.683c.416.166 1.288 1.018 1.288 1.018s.458.437.935.416c.478-.02 1.767.083 1.767.083s.581-.062.81-.187c.23-.124 1.767-.623 1.891-.706.125-.084.457-.062-.062.27-.52.332-1.35 1.06-1.475 1.247-.125.187-1.434.582-1.787.727 0 0-.208.187-.52.187-.312 0-1.58.125-1.808.977-.083.831 1.164.52 1.164.52l.582-.083s.977-.084 1.393-.25c.415-.166 1.496-.644 2.223-1.143.727-.499 1.704-1.33 1.704-1.33s.416-.207.104.25c-.312.457-1.33 1.807-1.455 1.911-.124.104-1.122 1.06-.872 1.621.25.561.395.686.727.312.332-.374.623-.623.852-.977.229-.353 1.018-1.226 1.205-1.393.187-.166.457-.374.686-.852.229-.477.81-1.538 1.018-1.683.208-.146.375-.27.666-.79.29-.52.831-2.265.914-2.493.083-.229.727-2.535 1.35-3.076.624-.54 1.35-.81 1.35-.81s.603-4.468-1.392-6.67c0 0-1.558 1.142-2.826 1.267-1.267.125-2.16-.125-2.16-.125s-.458-.207-.936 0c-.477.208-1.06.25-1.641.54-.582.292-1.247.416-1.538.562-.291.145-1.642.498-1.85.52-.208.02-.415.04-.52.186-.104.146-.54.748-.623 1.102-.083.353-.686 1.829-.686 1.829s-.25.561.146.686c0 0-.125.79-.166 1.392-.042.603-.146 1.08.27 1.372.416.29 2.327 1.787 2.327 1.787s.333.186.499.166c.166-.021 2.41-.125 2.888-.52.478-.395.27.29.042.436-.23.146-1.933 1.476-2.14 1.58-.208.104-1.497 0-1.892.104-.395.104-.665-.707-1.787-1.06-.852-.27-1.101.582-1.101.582s.02.332.436.499zm6.65-4.759c-.125.229-1.06.603-1.06.603-1.911.54-1.58.997-1.85.582-.27-.416-1.6-.935-1.6-.935 0-.312-.498-1.455-.706-1.663-.208-.207.083-.332.083-.332.478-.166 1.06-1.226 1.185-1.496.124-.27.395-.166.395-.166 2.057.229 2.41-.54 2.555-.083.146.457.852.997 1.102 1.247.25.25.478.644.395.81-.083.167-.374 1.205-.499 1.434z" style="stroke-width:.0544808"/></svg>