<svg width="40" height="40" viewBox="0 0 30.001 30" xmlns="http://www.w3.org/2000/svg"><path d="M12.636 27.812a7.493 7.493 0 0 1-5.156-12.93l-.348-2.528a9.67 9.67 0 0 0-4.177 7.965C2.955 25.666 7.29 30 12.636 30a9.664 9.664 0 0 0 7.648-3.744l-1.045-2.392a7.491 7.491 0 0 1-6.603 3.948z" style="stroke-width:.0532507"/><circle cx="7.821" cy="6.168" r="2.706" transform="rotate(-22.5)" style="stroke-width:.0532507"/><path d="m26.323 24.053-2.566.23s-3.18-7.712-3.61-8.188c-.43-.476-1.49-.369-1.49-.369l-5.654-.015-.323-2.228h5.024v-.002l.025.001a.998.998 0 0 0 0-1.997l-.025.002v-.002H12.45l-.5-3.69a2.226 2.226 0 1 0-4.403.624l.94 8.229c.337 2.304 2.212 2.197 2.212 2.197l7.328.03s2.935 7.006 3.242 7.729c.307.722.998.368.998.368l4.779-2.074c-.277-.952-.722-.845-.722-.845z" style="stroke-width:.0532507"/></svg>