<svg xmlns="http://www.w3.org/2000/svg" xml:space="preserve" width="648.813" height="648.813"><path d="M1470.62 1080.47h40.63c26.35 0 42.8 1.11 49.36 3.34 6.55 2.22 11.69 6.05 15.4 11.5 3.71 5.44 5.56 12.25 5.56 20.41 0 9.15-2.44 16.54-7.32 22.17-4.89 5.62-11.79 9.19-20.69 10.67-4.46.62-17.82.93-40.08.93h-42.86zm-54.92-156.982V1195.5h115.59c29.07 0 50.19-2.45 63.37-7.33 13.17-4.88 23.71-13.57 31.63-26.06 7.92-12.5 11.88-26.79 11.88-42.86 0-20.41-6-37.27-18-50.57-12-13.3-29.94-21.68-53.81-25.14 11.87-6.93 21.67-14.54 29.41-22.82 7.73-8.29 18.15-23.009 31.26-44.161l33.22-53.071h-65.69l-39.7 59.192c-14.11 21.16-23.75 34.48-28.95 39.98-5.19 5.51-10.7 9.28-16.51 11.32-5.82 2.04-15.03 3.07-27.65 3.07h-11.13V923.488h-54.92M1689.93 923.488V1195.5h201.69v-46.01h-146.76v-60.3h136.56v-45.83h-136.56v-74.04h151.96v-45.832h-206.89M2117.43 1023.5l53.26-16.88c-8.17-29.69-21.75-51.741-40.73-66.151-18.99-14.418-43.08-21.617-72.27-21.617-36.13 0-65.81 12.339-89.06 37.019-23.26 24.668-34.89 58.409-34.89 101.219 0 45.27 11.69 80.43 35.07 105.48 23.38 25.04 54.12 37.57 92.22 37.57 33.27 0 60.3-9.83 81.08-29.5 12.37-11.63 21.65-28.33 27.83-50.1l-54.36-12.98c-3.22 14.1-9.93 25.23-20.13 33.39-10.21 8.17-22.61 12.25-37.21 12.25-20.16 0-36.52-7.24-49.07-21.71-12.56-14.47-18.84-37.92-18.84-70.32 0-34.4 6.19-58.89 18.56-73.479 12.37-14.601 28.45-21.89 48.24-21.89 14.6 0 27.15 4.64 37.67 13.91 10.51 9.277 18.05 23.869 22.63 43.789M2263.27 1059.68c0-30.8 7.11-54.15 21.34-70.039 14.23-15.903 32.29-23.84 54.18-23.84 21.9 0 39.86 7.879 53.9 23.648 14.04 15.771 21.06 39.431 21.06 70.981 0 31.17-6.83 54.42-20.5 69.76-13.67 15.33-31.82 23.01-54.46 23.01s-40.88-7.76-54.73-23.29c-13.86-15.53-20.79-38.94-20.79-70.23zm-56.59-1.85c0 27.7 4.14 50.96 12.43 69.77 6.19 13.84 14.63 26.27 25.33 37.29 10.7 11.01 22.42 19.17 35.16 24.49 16.95 7.17 36.49 10.76 58.63 10.76 40.08 0 72.15-12.43 96.21-37.29 24.06-24.86 36.09-59.44 36.09-103.72 0-43.92-11.94-78.271-35.81-103.079-23.88-24.801-55.79-37.199-95.74-37.199-40.45 0-72.62 12.339-96.49 37.019-23.87 24.668-35.81 58.659-35.81 101.959M2582.78 923.488l-97.23 272.012h59.56l68.84-201.309 66.61 201.309h58.27l-97.42-272.012h-58.63M2766.84 923.488V1195.5h201.69v-46.01h-146.76v-60.3h136.56v-45.83h-136.56v-74.04h151.96v-45.832h-206.89M3075.41 1080.47h40.63c26.35 0 42.81 1.11 49.36 3.34 6.55 2.22 11.69 6.05 15.4 11.5 3.71 5.44 5.56 12.25 5.56 20.41 0 9.15-2.44 16.54-7.32 22.17-4.89 5.62-11.79 9.19-20.69 10.67-4.46.62-17.82.93-40.08.93h-42.86zm-54.92-156.982V1195.5h115.59c29.07 0 50.2-2.45 63.37-7.33 13.17-4.88 23.71-13.57 31.63-26.06 7.92-12.5 11.88-26.79 11.88-42.86 0-20.41-6-37.27-18-50.57-12-13.3-29.93-21.68-53.81-25.14 11.87-6.93 21.68-14.54 29.41-22.82 7.73-8.29 18.15-23.009 31.26-44.161l33.22-53.071h-65.69l-39.7 59.192c-14.11 21.16-23.75 34.48-28.95 39.98-5.19 5.51-10.7 9.28-16.51 11.32-5.81 2.04-15.03 3.07-27.65 3.07h-11.13V923.488h-54.92M3352.06 923.488v114.492l-99.64 157.52h64.38l64.02-107.61 62.71 107.61h63.27l-100.01-157.9V923.488h-54.73M865.992 2701.61l27.512 47.54 127.506-73.79c20.24-11.71 33.69-18.71 40.37-21.01 10.81-3.53 21.36-3.17 31.62 1.12 10.27 4.27 19.23 13.05 26.92 26.32 7.8 13.5 10.93 25.26 9.38 35.31-1.54 10.04-5.93 18.07-13.16 24.12-7.22 6.03-20.15 14.45-38.78 25.22l-130.243 75.37 27.508 47.53 123.665-71.55c28.26-16.36 47.49-29.19 57.67-38.52 10.19-9.32 17.29-19.76 21.32-31.3 4.04-11.56 5.09-24.5 3.17-38.82-1.93-14.31-8.28-30.78-19.07-49.42-13-22.48-25.46-38.03-37.38-46.64-11.91-8.62-23.96-13.89-36.17-15.84-12.2-1.94-23.47-1.35-33.81 1.78-15.29 4.7-36.1 14.67-62.43 29.9l-125.598 72.68M1239.33 2803.7l-235.44 136.24 26.77 46.25 212.98 5.38-157.23 90.98 25.56 44.17 235.44-136.24-27.6-47.69-208.46-6.08 153.54-88.84-25.56-44.17M1375.66 3039.3l-235.44 136.23 27.5 47.54 235.45-136.23-27.51-47.54M1460.04 3185.13l-195.61 113.19-40.42-69.87-39.83 23.05 108.26 187.1 39.82-23.05-40.32-69.69 195.61-113.19-27.51-47.54M1581.4 3394.87l-99.09 57.33-186.25-7.34 32.25 55.73 125.2 1.51-61.74 108.18 31.69 54.77 86.59-165.65 98.77-57.15-27.42-47.38M3213.24 3710.11l31.37-43.57c-13.89-11.81-22-24.08-24.32-36.8-2.32-12.74.72-26.31 9.12-40.74 8.9-15.3 18.83-24.94 29.82-28.93 10.96-3.98 20.8-3.46 29.45 1.58 5.56 3.24 9.34 7.63 11.35 13.16 2 5.53 2.08 13.2.24 23-1.32 6.68-5.27 21.34-11.85 43.98-8.51 29.12-11.15 51.48-7.92 67.1 4.54 21.96 16.1 38.35 34.7 49.18 11.98 6.96 25.15 10.09 39.52 9.36 14.38-.71 28.01-5.87 40.9-15.48 12.89-9.59 24.59-23.43 35.11-41.51 17.17-29.5 23.62-55.48 19.37-77.92-4.26-22.45-16.97-40.32-38.13-53.64l-29.71 46.26c10.9 9.06 17.05 18.47 18.46 28.23 1.41 9.77-1.79 21.33-9.57 34.69-8.03 13.79-17.14 22.95-27.34 27.45-6.57 2.91-12.89 2.59-18.99-.96-5.55-3.24-8.94-8.36-10.16-15.36-1.54-8.9 1.69-26.5 9.66-52.76 8-26.27 12.29-46.63 12.9-61.09.62-14.46-2.3-27.75-8.77-39.88-6.46-12.14-17.12-22.53-31.99-31.17-13.46-7.84-28.26-11.45-44.37-10.8-16.13.63-31.02 6.13-44.7 16.48-13.68 10.36-26.47 25.75-38.35 46.17-17.3 29.72-23.72 56.55-19.25 80.46 4.47 23.93 18.95 45.1 43.45 63.51M3271.23 3434.5l235.1 136.82L3607.77 3397l-39.76-23.15-73.83 126.86-52.11-30.34 68.68-118.02-39.61-23.06-68.68 118.03-64-37.24 76.44-131.34-39.61-23.04-104.06 178.8M3562.11 3246.77l20.43-35.13c13.26-22.77 22.49-36.42 27.71-40.97 5.23-4.54 11.12-7.05 17.7-7.52 6.56-.48 13.38 1.34 20.43 5.46 7.91 4.6 13.07 10.43 15.48 17.48 2.41 7.05 2.02 14.8-1.19 23.24-1.7 4.16-8.15 15.87-19.35 35.11l-21.56 37.05zm-163.3-31.49 235.09 136.82 58.15-99.91c14.62-25.13 23.13-44.61 25.54-58.45 2.4-13.85.19-27.33-6.63-40.46-6.81-13.12-17.16-23.73-31.07-31.82-17.64-10.27-35.22-13.56-52.74-9.88-17.54 3.69-33.8 14.98-48.8 33.86-.01-13.75-1.66-26.04-4.93-36.89-3.29-10.85-10.77-27.26-22.45-49.24l-29.16-55.39-33.03 56.77 31.18 64.09c11.19 22.82 17.85 37.87 20 45.12 2.15 7.26 2.64 13.92 1.48 19.98-1.17 6.04-4.92 14.53-11.27 25.43l-5.59 9.62-98.15-57.12-27.62 47.47M3568.2 2924.21l186.19 220.86 29.96-51.48-139.37-160.76 207.5 43.69 29.3-50.36-284.09-52.62-29.49 50.67M3659.94 2766.57l235.1 136.82 27.62-47.46-235.09-136.83-27.63 47.47M3887.86 2573.76l12.2-54.51c-29.77-7.88-55.66-7.24-77.66 1.92-22.01 9.16-40.35 26.36-55.04 51.6-18.16 31.22-22.43 63.08-12.8 95.59 9.64 32.51 32.94 59.52 69.93 81.06 39.14 22.77 75.4 30.36 108.81 22.74 33.42-7.6 59.7-27.87 78.87-60.8 16.72-28.75 21.82-57.06 15.28-84.92-3.84-16.54-13.6-32.95-29.31-49.25l-38.56 40.46c10.56 9.87 16.81 21.27 18.74 34.19 1.92 12.93-.78 25.7-8.13 38.31-10.14 17.44-24.63 27.93-43.45 31.5-18.83 3.58-42.24-2.79-70.25-19.09-29.72-17.29-47.78-34.96-54.17-53-6.4-18.03-4.62-35.6 5.33-52.7 7.35-12.62 17.67-21.14 30.98-25.56 13.31-4.41 29.72-3.59 49.23 2.46M3851.91 2436.7l235.1 136.82 101.45-174.32-39.77-23.14-73.82 126.84-52.12-30.33 68.69-118.03-39.61-23.05-68.69 118.03-63.99-37.23 76.43-131.34-39.61-23.06-104.06 178.81" style="fill:#ecebed;fill-opacity:1;fill-rule:nonzero;stroke:none" transform="matrix(.13333 0 0 -.13333 0 648.813)"/><path d="M2433.05 107.07c-1284.61 0-2325.984 1041.37-2325.984 2325.98 0 1284.6 1041.374 2325.98 2325.984 2325.98 1284.6 0 2325.98-1041.38 2325.98-2325.98 0-1284.61-1041.38-2325.98-2325.98-2325.98zm0 4759.03C1089.31 4866.1-.004 3776.78-.004 2433.05-.004 1089.31 1089.31 0 2433.05 0 3776.78 0 4866.1 1089.31 4866.1 2433.05c0 1343.73-1089.32 2433.05-2433.05 2433.05" style="fill:#ecebed;fill-opacity:1;fill-rule:nonzero;stroke:none" transform="matrix(.13333 0 0 -.13333 0 648.813)"/><path d="m2433.12 4540.3 1821.67-3176.31H611.453Zm0 220.25L421.98 1253.87h4022.29L2433.12 4760.55" style="fill:#ecebed;fill-opacity:1;fill-rule:nonzero;stroke:none" transform="matrix(.13333 0 0 -.13333 0 648.813)"/><path d="M2205.45 2218h-240.77v661.95c.01 0 .01-.01.03-.01l.03 208.85c.47 57.82 54.14 104.58 120.32 104.58 66.19 0 119.85-46.76 120.32-104.58l.03-208.86c.01.01.03.01.04.02zm147.87 871.73c0 129.65-120.1 234.75-268.25 234.75-148.16 0-268.26-105.1-268.26-234.75 0-.39.05-.77.05-1.15h-.03V2218h-119.34v-147.85h119.34v-539.64h147.85v539.64h240.77v-539.64h147.85v1558.07h-.03c0 .38.05.76.05 1.15M2945.12 2218h-240.77v661.95c.01 0 .02-.01.03-.01l.03 208.85c.48 57.82 54.14 104.58 120.32 104.58 66.2 0 119.86-46.76 120.33-104.58l.03-208.86c.01.01.02.01.03.02zM3093 3089.73c0 129.65-120.1 234.75-268.26 234.75-148.15 0-268.25-105.1-268.25-234.75 0-.39.05-.77.05-1.15h-.04V2218h-119.33v-147.85h119.33v-539.64h147.85v539.64h240.77v-539.64h147.86v1558.07h-.03c0 .38.05.76.05 1.15" style="fill:#ecebed;fill-opacity:1;fill-rule:nonzero;stroke:none" transform="matrix(.13333 0 0 -.13333 0 648.813)"/></svg>
